<svg xmlns="http://www.w3.org/2000/svg" width="1200" height="760" viewBox="0 0 1200 760">
<defs><marker id="a" markerWidth="10" markerHeight="10" refX="8" refY="3" orient="auto"><path d="M0,0 L0,6 L9,3 z" fill="#39546d"/></marker></defs>
<rect width="1200" height="760" fill="#f6f8fb"/><text x="600" y="48" text-anchor="middle" font-family="Arial" font-size="30" font-weight="700" fill="#12283a">Topología — Primer Parcial de Seguridad de Redes</text>
<g stroke="#39546d" stroke-width="4" fill="none" marker-end="url(#a)">`n<path d="M170 185 L340 185"/><path d="M500 165 L650 165"/><path d="M500 220 L930 220"/><path d="M730 255 L730 365"/><path d="M930 250 C870 380 700 500 555 565"/><path d="M810 410 L950 310"/><path d="M810 440 L950 500"/><path d="M810 470 L950 645"/><path d="M650 475 L555 685"/>`n</g>
<path d="M810 150 C850 82 890 82 930 150" stroke="#8b4ac7" stroke-width="4" stroke-dasharray="12 9" fill="none"/><text x="680" y="328" text-anchor="middle" font-family="Arial" font-size="18" fill="#713ca5">IPsec IKEv2 · túnel activo</text>
<g font-family="Arial" text-anchor="middle">
<rect x="45" y="125" width="125" height="120" rx="18" fill="#b7dcff" stroke="#4c81aa" stroke-width="3"/><text x="107" y="175" font-size="24" font-weight="700" fill="#123c5a">NAT</text><text x="107" y="205" font-size="16" fill="#123c5a">Internet</text>
<rect x="340" y="125" width="160" height="130" rx="15" fill="#d4e2ed" stroke="#516a7e" stroke-width="3"/><text x="420" y="170" font-size="22" font-weight="700" fill="#172c3b">ISP-PRIMER</text><text x="420" y="200" font-size="15" fill="#172c3b">eth1 .10.0.137.10/24</text><text x="420" y="225" font-size="15" fill="#172c3b">eth2 .203.0.113.1/30 · eth3 .198.51.100.1/30</text>
<rect x="650" y="125" width="160" height="130" rx="15" fill="#f0c7c7" stroke="#9a4343" stroke-width="3"/><text x="730" y="170" font-size="22" font-weight="700" fill="#532525">FortiGate HQ</text><text x="730" y="200" font-size="15" fill="#532525">port1 203.0.113.2/30</text><text x="730" y="225" font-size="15" fill="#532525">port2 trunk 802.1Q</text>
<rect x="930" y="125" width="210" height="125" rx="15" fill="#f0c7c7" stroke="#9a4343" stroke-width="3"/><text x="1035" y="170" font-size="22" font-weight="700" fill="#532525">FortiGate Branch</text><text x="1035" y="200" font-size="15" fill="#532525">WAN .198.51.100.2/30</text><text x="1035" y="225" font-size="15" fill="#532525">LAN .10.17.47.1/28</text>
<rect x="650" y="365" width="160" height="120" rx="12" fill="#d8e8cf" stroke="#557342" stroke-width="3"/><text x="730" y="407" font-size="21" font-weight="700" fill="#28451b">Cisco IOSvL2</text><text x="730" y="435" font-size="15" fill="#28451b">Gi0/0 trunk VLAN 10,20,30</text><text x="730" y="460" font-size="15" fill="#28451b">SVI VLAN20 .10.17.45.130/25</text>
<rect x="375" y="525" width="180" height="90" rx="12" fill="#e6e1f6" stroke="#6a5b98" stroke-width="3"/><text x="465" y="562" font-size="19" font-weight="700" fill="#35295e">PC sucursal</text><text x="465" y="590" font-size="15" fill="#35295e">10.17.47.2/28</text>
<rect x="950" y="270" width="190" height="85" rx="12" fill="#fff1c8" stroke="#a9842e" stroke-width="3"/><text x="1045" y="305" font-size="18" font-weight="700" fill="#4b3a10">PC VLAN 10 · DHCP</text><text x="1045" y="332" font-size="15" fill="#4b3a10">10.17.45.20/25 · GW .1</text>
<rect x="950" y="460" width="190" height="85" rx="12" fill="#d6edf2" stroke="#3d8795" stroke-width="3"/><text x="1045" y="495" font-size="18" font-weight="700" fill="#17424a">PC VLAN 20</text><text x="1045" y="522" font-size="15" fill="#17424a">10.17.45.150/25 · GW .129</text>
<rect x="950" y="610" width="190" height="70" rx="12" fill="#ffe3c1" stroke="#ae6b22" stroke-width="3"/><text x="1045" y="640" font-size="18" font-weight="700" fill="#58330d">Web Server · VLAN30</text><text x="1045" y="665" font-size="15" fill="#58330d">10.17.46.2/28 · HTTP</text>
<rect x="375" y="650" width="180" height="70" rx="12" fill="#d9e9e5" stroke="#48816f" stroke-width="3"/><text x="465" y="680" font-size="18" font-weight="700" fill="#204438">MariaDB · VLAN30</text><text x="465" y="705" font-size="15" fill="#204438">10.17.46.3/28 · TCP 3306</text>
</g>
<text x="600" y="744" text-anchor="middle" font-family="Arial" font-size="14" fill="#506273">Gateway VLAN10 .10.17.45.1 · VLAN20 .10.17.45.129 · Servidores .10.17.46.1</text>
</svg>